<svg width="54" height="58" viewBox="0 0 54 58" fill="none" xmlns="http://www.w3.org/2000/svg">
<path fill-rule="evenodd" clip-rule="evenodd" d="M3.95495 28.7158L44.0115 54.5531L44.0136 54.5543C44.4011 54.7996 44.7363 54.9108 45.0545 54.8553C45.4075 54.7936 45.7134 54.5605 46.0221 54.2635C46.4888 53.8145 47.2271 53.8345 47.6697 54.308C48.1123 54.7815 48.0926 55.5306 47.6259 55.9795C46.9482 56.6314 46.2244 57.0507 45.4498 57.1859C44.6421 57.3269 43.7552 57.1808 42.7697 56.5543L42.763 56.5501L2.69775 30.7071C2.69369 30.7045 2.68967 30.7019 2.68569 30.6992L2.68511 30.6988C1.71166 30.0535 1.20945 29.2979 0.997248 28.4948C0.793629 27.7245 0.865522 26.882 1.16492 25.9847C1.37109 25.3666 2.03321 25.0346 2.64244 25.2439C3.25179 25.4531 3.57891 26.1248 3.37262 26.7429C3.23626 27.1518 3.15578 27.5313 3.24855 27.8822C3.33215 28.1989 3.57253 28.4613 3.95495 28.7158ZM44.6595 1.28129C47.5911 2.61341 48.9051 6.10964 47.5921 9.084C46.2791 12.0582 42.8331 13.3915 39.9016 12.0594C36.97 10.7273 35.656 7.23094 36.969 4.2567C38.2819 1.28247 41.728 -0.0508258 44.6595 1.28129ZM26.6128 21.6847L29.467 15.2189C29.5893 14.942 29.6183 14.6319 29.5496 14.3365C29.481 14.0411 29.3185 13.7769 29.0872 13.5845L22.9077 8.44588C21.6739 7.42106 21.2224 6.5527 21.7338 5.37611L21.7738 5.284C22.2851 4.10729 23.38 3.22506 24.7996 4.09282C24.7996 4.09282 30.6357 8.41706 32.2208 9.69988C32.4891 9.91703 32.7834 10.0989 33.0966 10.2413C34.9974 11.1049 41.9722 14.6273 44.2844 15.678C44.7691 15.8982 45.2131 16.201 45.5971 16.5733L51.9409 22.7222C52.878 23.6518 53.6045 24.6352 53.0796 25.8056L53.0386 25.8974C52.5138 27.0679 51.109 27.964 49.9994 27.0527L43.5339 20.6499C43.4928 20.6091 43.4426 20.579 43.3876 20.5622C43.3326 20.5453 43.2745 20.5422 43.218 20.5531C43.1616 20.564 43.1086 20.5886 43.0635 20.6248C43.0185 20.6609 42.9827 20.7076 42.9593 20.7608L39.2312 29.2062L45.2076 37.5911C45.547 38.0672 45.7179 38.6456 45.6927 39.2326C45.6675 39.8196 45.4477 40.3808 45.0688 40.8252L39.9907 46.7807C39.5849 47.2564 39.0095 47.5491 38.3911 47.5944C37.7726 47.6398 37.1617 47.434 36.6928 47.0225C35.7163 46.1653 35.6095 44.6673 36.4544 43.6766L39.4053 40.2161C39.5024 40.1022 39.5588 39.9584 39.5653 39.808C39.5717 39.6575 39.5279 39.5093 39.4409 39.3873L37.0798 36.0747C33.1988 30.6603 27.8192 28.4879 23.7682 27.0301L18.9333 26.0885C18.7876 26.0601 18.6366 26.0824 18.505 26.152C18.3734 26.2215 18.2688 26.3341 18.2081 26.4715L16.3645 30.6476C15.8367 31.8433 14.4536 32.3783 13.2751 31.8429C12.7092 31.5858 12.2671 31.111 12.0462 30.5232C11.8252 29.9354 11.8434 29.2825 12.0969 28.7083C13.0166 26.6248 14.394 23.5055 15.27 21.5216C15.5067 20.9854 15.915 20.546 16.4287 20.2747C16.9424 20.0034 17.5313 19.916 18.1 20.0268L26.6128 21.6847Z" fill="lawngreen"/>
</svg>
