<svg width="27" height="27" viewBox="0 0 27 27" fill="none" xmlns="http://www.w3.org/2000/svg">
<path fill-rule="evenodd" clip-rule="evenodd" d="M2.12422 13.6926L22.0095 25.5885L22.0105 25.5891C22.2029 25.7021 22.3693 25.7533 22.5272 25.7277C22.7025 25.6993 22.8543 25.592 23.0076 25.4552C23.2393 25.2485 23.6058 25.2577 23.8255 25.4757C24.0452 25.6937 24.0354 26.0386 23.8037 26.2453C23.4673 26.5455 23.108 26.7385 22.7235 26.8007C22.3225 26.8657 21.8822 26.7984 21.393 26.51L21.3897 26.508L1.50011 14.6094C1.49809 14.6083 1.49609 14.6071 1.49412 14.6058L1.49383 14.6057C1.01058 14.3086 0.76127 13.9606 0.655927 13.5909C0.554844 13.2362 0.590534 12.8483 0.739165 12.4352C0.841514 12.1506 1.17021 11.9977 1.47265 12.0941C1.77515 12.1904 1.93754 12.4997 1.83513 12.7843C1.76744 12.9725 1.72749 13.1473 1.77354 13.3088C1.81504 13.4547 1.93437 13.5755 2.12422 13.6926ZM22.3311 1.06133C23.7865 1.67466 24.4388 3.28439 23.787 4.65383C23.1352 6.02322 21.4245 6.63709 19.9692 6.02376C18.5139 5.41043 17.8615 3.80065 18.5133 2.43126C19.1651 1.06187 20.8758 0.448002 22.3311 1.06133ZM13.3722 10.4554L14.7892 7.47846C14.8498 7.35093 14.8643 7.20816 14.8302 7.07217C14.7961 6.93617 14.7154 6.8145 14.6006 6.72592L11.5329 4.36003C10.9204 3.88818 10.6963 3.48838 10.9501 2.94666L10.97 2.90424C11.2239 2.36247 11.7674 1.95627 12.4721 2.35581C12.4721 2.35581 15.3693 4.34676 16.1562 4.93739C16.2894 5.03737 16.4355 5.12112 16.591 5.18667C17.5346 5.5843 20.9971 7.20605 22.145 7.68982C22.3856 7.79121 22.606 7.93063 22.7966 8.10202L25.9459 10.9331C26.411 11.3611 26.7717 11.8138 26.5112 12.3528L26.4908 12.395C26.2302 12.9339 25.5328 13.3465 24.982 12.9269L21.7723 9.97895C21.752 9.96019 21.7271 9.94633 21.6998 9.93858C21.6725 9.93082 21.6436 9.92939 21.6156 9.93441C21.5875 9.93942 21.5612 9.95074 21.5389 9.96739C21.5165 9.98404 21.4987 10.0055 21.4871 10.03L19.6364 13.9184L22.6032 17.779C22.7717 17.9982 22.8566 18.2645 22.8441 18.5348C22.8316 18.805 22.7224 19.0634 22.5343 19.268L20.0134 22.01C19.812 22.229 19.5263 22.3638 19.2193 22.3847C18.9123 22.4056 18.609 22.3108 18.3762 22.1213C17.8915 21.7267 17.8385 21.037 18.2579 20.5808L19.7228 18.9876C19.771 18.9351 19.799 18.8689 19.8022 18.7997C19.8054 18.7304 19.7837 18.6621 19.7405 18.606L18.5684 17.0808C16.6417 14.5879 13.9711 13.5877 11.9601 12.9165L9.55991 12.483C9.48756 12.4699 9.41264 12.4802 9.34729 12.5122C9.28194 12.5442 9.23001 12.5961 9.1999 12.6593L8.28469 14.5821C8.02266 15.1326 7.33603 15.3789 6.75101 15.1324C6.47007 15.014 6.25062 14.7954 6.14093 14.5248C6.03124 14.2541 6.04029 13.9536 6.16609 13.6892C6.62269 12.7299 7.30644 11.2937 7.74134 10.3803C7.85886 10.1334 8.06155 9.93113 8.31655 9.80621C8.57155 9.68129 8.86392 9.64108 9.14625 9.69209L13.3722 10.4554Z" fill="#0044F0"/>
</svg>
